<svg xmlns="http://www.w3.org/2000/svg" version="1.1" xmlns:xlink="http://www.w3.org/1999/xlink" xmlns:svgjs="http://svgjs.dev/svgjs" width="2000" height="287" viewBox="0 0 2000 287"><g transform="matrix(1,0,0,1,-1.2121212121212466,0.9609135776983635)"><svg viewBox="0 0 396 57" data-background-color="#ffffff" preserveAspectRatio="xMidYMid meet" height="287" width="2000" xmlns="http://www.w3.org/2000/svg" xmlns:xlink="http://www.w3.org/1999/xlink"><g id="tight-bounds" transform="matrix(1,0,0,1,0.2400000000000091,-0.19084346316657275)"><svg viewBox="0 0 395.52 57.38133494984812" height="57.38133494984812" width="395.52"><g><svg viewBox="0 0 475.27864761125386 68.95257704564166" height="57.38133494984812" width="395.52"><g transform="matrix(1,0,0,1,79.75864761125388,11.589441563341268)"><svg viewBox="0 0 395.52 45.773693918959125" height="45.773693918959125" width="395.52"><g id="textblocktransform"><svg viewBox="0 0 395.52 45.773693918959125" height="45.773693918959125" width="395.52" id="textblock"><g><svg viewBox="0 0 395.52 45.773693918959125" height="45.773693918959125" width="395.52"><g transform="matrix(1,0,0,1,0,0)"><svg width="395.52" viewBox="1.4 -36.25 318.813478260857 36.9" height="45.773693918959125" data-palette-color="#ffffff"><path d="M27.15-27.1Q27.15-28.6 26.85-29.33 26.55-30.05 25.7-30.35 24.85-30.65 23-30.65L23-30.65Q22.85-30.65 22.85-30.95 22.85-31.25 23-31.25L23-31.25 25.45-31.2Q27.95-31.1 29.95-31.1L29.95-31.1Q31.3-31.1 33.8-31.2L33.8-31.2 36.6-31.25Q36.75-31.25 36.75-30.95 36.75-30.65 36.6-30.65L36.6-30.65Q34.9-30.65 34.08-30.38 33.25-30.1 32.98-29.4 32.7-28.7 32.7-27.2L32.7-27.2 32.7-4.05Q32.7-2.55 32.98-1.83 33.25-1.1 34.05-0.85 34.85-0.6 36.6-0.6L36.6-0.6Q36.75-0.6 36.75-0.3 36.75 0 36.6 0L36.6 0Q34.85 0 33.8-0.05L33.8-0.05 29.95-0.1 25.45-0.05Q24.55 0 23 0L23 0Q22.85 0 22.85-0.3 22.85-0.6 23-0.6L23-0.6Q24.85-0.6 25.7-0.85 26.55-1.1 26.85-1.8 27.15-2.5 27.15-4.05L27.15-4.05 27.15-27.1ZM8.05-15.55L8.05-16.95 29.7-16.95 29.7-15.55 8.05-15.55ZM5.45-27.2Q5.45-28.7 5.15-29.4 4.85-30.1 4.08-30.38 3.3-30.65 1.6-30.65L1.6-30.65Q1.45-30.65 1.45-30.95 1.45-31.25 1.6-31.25L1.6-31.25 4.3-31.2Q6.6-31.1 8-31.1L8-31.1Q9.9-31.1 12.4-31.2L12.4-31.2 15.15-31.25Q15.25-31.25 15.25-30.95 15.25-30.65 15.15-30.65L15.15-30.65Q13.35-30.65 12.5-30.35 11.65-30.05 11.33-29.33 11-28.6 11-27.1L11-27.1 11-4.05Q11-2.55 11.3-1.83 11.6-1.1 12.45-0.85 13.3-0.6 15.15-0.6L15.15-0.6Q15.25-0.6 15.25-0.3 15.25 0 15.15 0L15.15 0Q13.4 0 12.35-0.05L12.35-0.05 8-0.1 4.25-0.05Q3.25 0 1.5 0L1.5 0Q1.4 0 1.4-0.3 1.4-0.6 1.5-0.6L1.5-0.6Q3.25-0.6 4.05-0.85 4.85-1.1 5.15-1.83 5.45-2.55 5.45-4.05L5.45-4.05 5.45-27.2ZM49.95 0.6Q46.8 0.6 44.5-0.73 42.2-2.05 41-4.28 39.8-6.5 39.8-9.1L39.8-9.1Q39.8-12 41.25-14.45 42.7-16.9 45.27-18.32 47.85-19.75 51.1-19.75L51.1-19.75Q54.2-19.75 55.9-18.35 57.6-16.95 57.6-14L57.6-14Q57.6-12.45 57.05-12.45L57.05-12.45 52.25-12.45Q52.35-15.5 51.65-17.13 50.95-18.75 49.2-18.75L49.2-18.75Q47.2-18.75 46.02-16.7 44.85-14.65 44.85-11.25L44.85-11.25Q44.85-6.85 46.87-4.35 48.9-1.85 52.7-1.85L52.7-1.85Q54.05-1.85 55-2.18 55.95-2.5 57.5-3.25L57.5-3.25 57.6-3.3Q57.7-3.3 57.82-3.1 57.95-2.9 57.85-2.8L57.85-2.8Q56-1 54.1-0.2 52.2 0.6 49.95 0.6L49.95 0.6ZM43.1-12.4L43.05-13.35 54-13.55 54-12.45 43.1-12.4ZM74.95 0.3Q74.75 0.4 74.45 0.4L74.45 0.4Q73.45 0.4 72.6-0.88 71.75-2.15 71.75-4.25L71.75-4.25 71.75-12.75Q71.75-15.95 71.22-17.4 70.7-18.85 69.45-18.85L69.45-18.85Q66.8-18.85 66.45-14.75L66.45-14.75Q66.3-13.25 65.57-12.6 64.85-11.95 63.55-11.95L63.55-11.95Q62.3-11.95 61.72-12.48 61.15-13 61.15-13.85L61.15-13.85Q61.15-15.35 62.9-16.73 64.65-18.1 67.12-18.95 69.6-19.8 71.5-19.8L71.5-19.8Q73.7-19.8 75.07-18.43 76.45-17.05 76.45-14.25L76.45-14.25 76.45-5.4Q76.45-3.95 76.97-3.15 77.5-2.35 78.45-2.35L78.45-2.35Q79.15-2.35 79.9-2.7L79.9-2.7 79.95-2.7Q80.15-2.7 80.22-2.48 80.3-2.25 80.1-2.15L80.1-2.15 74.95 0.3ZM65.35 0.35Q63.2 0.35 62.1-0.6 61-1.55 61-3.25L61-3.25Q61-4.6 61.65-5.43 62.3-6.25 63.27-6.73 64.25-7.2 66-7.8L66-7.8 67.25-8.25 72.25-10.1 72.45-9.35 69.6-8.05Q69.45-8 68.6-7.68 67.75-7.35 67.12-6.6 66.5-5.85 66.5-4.85L66.5-4.85Q66.5-3.65 67.27-2.98 68.05-2.3 69.05-2.3L69.05-2.3Q69.85-2.3 70.7-2.85L70.7-2.85 73.2-4.55 73.25-3.75 69.75-1.25Q68.6-0.4 67.6-0.03 66.6 0.35 65.35 0.35L65.35 0.35ZM81.79 0Q81.69 0 81.69-0.3 81.69-0.6 81.79-0.6L81.79-0.6Q83.34-0.6 83.92-1.33 84.49-2.05 84.49-4.05L84.49-4.05 84.54-29.45Q84.54-31.2 84.22-31.95 83.89-32.7 83.09-32.7L83.09-32.7Q82.44-32.7 81.19-32.15L81.19-32.15 81.14-32.15Q80.99-32.15 80.87-32.43 80.74-32.7 80.84-32.75L80.84-32.75 88.19-36.2 88.39-36.25Q88.64-36.25 88.94-36.02 89.24-35.8 89.24-35.6L89.24-35.6 89.24-4.05Q89.24-2.05 89.79-1.33 90.34-0.6 91.89-0.6L91.89-0.6Q92.09-0.6 92.09-0.3 92.09 0 91.89 0L91.89 0Q90.64 0 89.89-0.05L89.89-0.05 86.84-0.1 83.84-0.05Q83.09 0 81.79 0L81.79 0ZM102.64 0.6Q100.44 0.6 98.89-0.45 97.34-1.5 97.34-4L97.34-4 97.34-15.1Q97.34-16.65 96.79-17.25 96.24-17.85 94.79-17.85L94.79-17.85Q94.74-17.85 94.67-18 94.59-18.15 94.59-18.3L94.59-18.3Q94.59-18.5 94.64-18.63 94.69-18.75 94.79-18.75L94.79-18.75Q97.34-18.85 98.92-19.85 100.49-20.85 101.34-22.9L101.34-22.9Q101.44-23.1 101.77-23.1 102.09-23.1 102.09-22.9L102.09-22.9 102.09-5.65Q102.09-3.75 103.07-2.85 104.04-1.95 105.64-1.95L105.64-1.95Q107.64-1.95 109.54-3.45L109.54-3.45 109.64-3.5Q109.84-3.5 109.97-3.3 110.09-3.1 109.94-3L109.94-3Q108.09-1.15 106.34-0.28 104.59 0.6 102.64 0.6L102.64 0.6ZM108.39-16.75Q104.74-17.55 100.34-17.55L100.34-17.55 100.34-18.85Q103.59-18.85 108.59-19.35L108.59-19.35Q108.69-19.35 108.82-18.98 108.94-18.6 108.94-18.15L108.94-18.15Q108.94-17.65 108.77-17.18 108.59-16.7 108.39-16.75L108.39-16.75ZM111.29 0Q111.19 0 111.19-0.3 111.19-0.6 111.29-0.6L111.29-0.6Q112.84-0.6 113.41-1.33 113.99-2.05 113.99-4.05L113.99-4.05 113.99-29.45Q113.99-31.2 113.66-31.95 113.34-32.7 112.54-32.7L112.54-32.7Q111.84-32.7 110.64-32.15L110.64-32.15 110.59-32.15Q110.44-32.15 110.31-32.43 110.19-32.7 110.29-32.75L110.29-32.75 117.59-36.2 117.84-36.25Q118.09-36.25 118.36-36.02 118.64-35.8 118.64-35.6L118.64-35.6 118.64-4.05Q118.64-2.05 119.21-1.33 119.79-0.6 121.34-0.6L121.34-0.6Q121.54-0.6 121.54-0.3 121.54 0 121.34 0L121.34 0Q120.04 0 119.24-0.05L119.24-0.05 116.34-0.1 113.34-0.05Q112.59 0 111.29 0L111.29 0ZM124.74 0Q124.64 0 124.64-0.3 124.64-0.6 124.74-0.6L124.74-0.6Q126.29-0.6 126.86-1.33 127.44-2.05 127.44-4.05L127.44-4.05 127.44-11.25Q127.44-13.95 126.44-15.25 125.44-16.55 123.34-16.55L123.34-16.55Q121.79-16.55 120.24-15.78 118.69-15 117.79-13.75L117.79-13.75 117.49-14.35Q121.44-19.9 126.24-19.9L126.24-19.9Q128.94-19.9 130.51-18.18 132.09-16.45 132.09-13.65L132.09-13.65 132.09-4.05Q132.09-2.05 132.66-1.33 133.24-0.6 134.79-0.6L134.79-0.6Q134.99-0.6 134.99-0.3 134.99 0 134.79 0L134.79 0Q133.49 0 132.69-0.05L132.69-0.05 129.79-0.1 126.79-0.05Q126.04 0 124.74 0L124.74 0ZM137.39 0Q137.24 0 137.24-0.3 137.24-0.6 137.39-0.6L137.39-0.6Q139.14-0.6 139.94-0.85 140.74-1.1 141.01-1.83 141.29-2.55 141.29-4.05L141.29-4.05 141.29-27.2Q141.29-28.7 141.04-29.4 140.79-30.1 140.04-30.38 139.29-30.65 137.74-30.65L137.74-30.65Q137.59-30.65 137.59-30.95 137.59-31.25 137.74-31.25L137.74-31.25 158.94-31.25Q159.44-31.25 159.44-30.8L159.44-30.8 159.54-24.15Q159.54-24.05 159.26-24 158.99-23.95 158.94-24.1L158.94-24.1Q158.14-27 156.24-28.4 154.34-29.8 151.24-29.8L151.24-29.8 149.74-29.8Q148.24-29.8 147.54-29.15 146.84-28.5 146.84-27.15L146.84-27.15 146.84-4.25Q146.84-2.7 147.24-1.95 147.64-1.2 148.74-0.9 149.84-0.6 152.19-0.6L152.19-0.6Q152.29-0.6 152.29-0.3 152.29 0 152.19 0L152.19 0Q150.14 0 148.99-0.05L148.99-0.05 143.89-0.1 140.14-0.05Q139.14 0 137.39 0L137.39 0ZM156.44-10.6Q156.44-12.6 154.86-13.78 153.29-14.95 150.39-14.95L150.39-14.95 144.19-14.95 144.19-16.35 150.44-16.35Q153.34-16.35 154.86-17.38 156.39-18.4 156.39-20.2L156.39-20.2Q156.39-20.3 156.69-20.3 156.99-20.3 156.99-20.2L156.99-20.2 156.94-15.65Q156.94-14.05 156.99-13.25L156.99-13.25 157.04-10.6Q157.04-10.45 156.74-10.45 156.44-10.45 156.44-10.6L156.44-10.6ZM169.43-14.2Q172.18-17.35 173.86-18.57 175.53-19.8 176.73-19.8L176.73-19.8Q177.88-19.8 178.96-18.98 180.03-18.15 180.03-17L180.03-17Q180.03-15.95 179.38-15.28 178.73-14.6 177.68-14.6L177.68-14.6Q176.93-14.6 176.46-14.9 175.98-15.2 175.48-15.8L175.48-15.8Q175.03-16.3 174.71-16.53 174.38-16.75 173.93-16.75L173.93-16.75Q173.38-16.75 172.56-16.15 171.73-15.55 169.83-13.55L169.83-13.55 169.43-14.2ZM163.73 0Q163.58 0 163.58-0.3 163.58-0.6 163.73-0.6L163.73-0.6Q165.28-0.6 165.83-1.33 166.38-2.05 166.38-4.05L166.38-4.05 166.38-13.45Q166.38-15 166.01-15.73 165.63-16.45 164.83-16.45L164.83-16.45Q163.98-16.45 162.43-15.75L162.43-15.75 162.33-15.75Q162.18-15.75 162.11-16 162.03-16.25 162.13-16.3L162.13-16.3 169.08-19.7Q169.38-19.8 169.43-19.8L169.43-19.8Q170.03-19.8 170.56-18.53 171.08-17.25 171.08-15.15L171.08-15.15 171.08-4.05Q171.08-2.05 172.03-1.33 172.98-0.6 175.53-0.6L175.53-0.6Q175.73-0.6 175.73-0.3 175.73 0 175.53 0L175.53 0Q173.78 0 172.78-0.05L172.78-0.05 168.73-0.1 165.78-0.05Q165.03 0 163.73 0L163.73 0ZM191.98 0.65Q188.88 0.65 186.56-0.78 184.23-2.2 182.98-4.63 181.73-7.05 181.73-9.9L181.73-9.9Q181.73-13.15 183.38-15.43 185.03-17.7 187.58-18.82 190.13-19.95 192.83-19.95L192.83-19.95Q195.93-19.95 198.23-18.5 200.53-17.05 201.76-14.68 202.98-12.3 202.98-9.6L202.98-9.6Q202.98-6.6 201.48-4.28 199.98-1.95 197.46-0.65 194.93 0.65 191.98 0.65L191.98 0.65ZM193.48-0.4Q195.43-0.4 196.46-2.33 197.48-4.25 197.48-7.85L197.48-7.85Q197.48-11.35 196.58-13.85 195.68-16.35 194.23-17.63 192.78-18.9 191.13-18.9L191.13-18.9Q187.13-18.9 187.13-11.75L187.13-11.75Q187.13-8.4 187.98-5.83 188.83-3.25 190.28-1.83 191.73-0.4 193.48-0.4L193.48-0.4ZM219.98 0Q219.83 0 219.83-0.3 219.83-0.6 219.98-0.6L219.98-0.6Q221.53-0.6 222.08-1.33 222.63-2.05 222.63-4.05L222.63-4.05 222.63-11.25Q222.63-13.95 221.65-15.25 220.68-16.55 218.58-16.55L218.58-16.55Q217.03-16.55 215.45-15.78 213.88-15 212.98-13.75L212.98-13.75 212.73-14.35Q214.53-16.95 216.75-18.43 218.98-19.9 221.48-19.9L221.48-19.9Q224.18-19.9 225.75-18.18 227.33-16.45 227.33-13.65L227.33-13.65 227.33-4.05Q227.33-2.05 227.9-1.33 228.48-0.6 230.03-0.6L230.03-0.6Q230.18-0.6 230.18-0.3 230.18 0 230.03 0L230.03 0Q228.73 0 227.98-0.05L227.98-0.05 224.98-0.1 222.08-0.05Q221.28 0 219.98 0L219.98 0ZM206.53 0Q206.38 0 206.38-0.3 206.38-0.6 206.53-0.6L206.53-0.6Q208.08-0.6 208.63-1.33 209.18-2.05 209.18-4.05L209.18-4.05 209.18-13.45Q209.18-15 208.8-15.73 208.43-16.45 207.63-16.45L207.63-16.45Q206.78-16.45 205.23-15.75L205.23-15.75 205.13-15.75Q204.98-15.75 204.9-16 204.83-16.25 204.93-16.3L204.93-16.3 211.88-19.7Q212.18-19.8 212.23-19.8L212.23-19.8Q212.83-19.8 213.35-18.53 213.88-17.25 213.88-15.15L213.88-15.15 213.88-4.05Q213.88-2.05 214.45-1.33 215.03-0.6 216.58-0.6L216.58-0.6Q216.73-0.6 216.73-0.3 216.73 0 216.58 0L216.58 0Q215.28 0 214.53-0.05L214.53-0.05 211.53-0.1 208.58-0.05Q207.83 0 206.53 0L206.53 0ZM240.08 0.6Q237.88 0.6 236.33-0.45 234.78-1.5 234.78-4L234.78-4 234.78-15.1Q234.78-16.65 234.23-17.25 233.68-17.85 232.23-17.85L232.23-17.85Q232.18-17.85 232.1-18 232.03-18.15 232.03-18.3L232.03-18.3Q232.03-18.5 232.08-18.63 232.13-18.75 232.23-18.75L232.23-18.75Q234.78-18.85 236.35-19.85 237.93-20.85 238.78-22.9L238.78-22.9Q238.88-23.1 239.2-23.1 239.53-23.1 239.53-22.9L239.53-22.9 239.53-5.65Q239.53-3.75 240.5-2.85 241.48-1.95 243.08-1.95L243.08-1.95Q245.08-1.95 246.98-3.45L246.98-3.45 247.08-3.5Q247.28-3.5 247.4-3.3 247.53-3.1 247.38-3L247.38-3Q245.53-1.15 243.78-0.28 242.03 0.6 240.08 0.6L240.08 0.6ZM245.83-16.75Q242.18-17.55 237.78-17.55L237.78-17.55 237.78-18.85Q241.03-18.85 246.03-19.35L246.03-19.35Q246.13-19.35 246.25-18.98 246.38-18.6 246.38-18.15L246.38-18.15Q246.38-17.65 246.2-17.18 246.03-16.7 245.83-16.75L245.83-16.75ZM249.42 0Q249.32 0 249.32-0.3 249.32-0.6 249.42-0.6L249.42-0.6Q250.97-0.6 251.55-1.33 252.12-2.05 252.12-4.05L252.12-4.05 252.17-29.45Q252.17-31.2 251.85-31.95 251.52-32.7 250.72-32.7L250.72-32.7Q250.07-32.7 248.82-32.15L248.82-32.15 248.77-32.15Q248.62-32.15 248.5-32.43 248.37-32.7 248.47-32.75L248.47-32.75 255.82-36.2 256.02-36.25Q256.27-36.25 256.57-36.02 256.87-35.8 256.87-35.6L256.87-35.6 256.87-4.05Q256.87-2.05 257.42-1.33 257.97-0.6 259.52-0.6L259.52-0.6Q259.72-0.6 259.72-0.3 259.72 0 259.52 0L259.52 0Q258.27 0 257.52-0.05L257.52-0.05 254.47-0.1 251.47-0.05Q250.72 0 249.42 0L249.42 0ZM263.02 0Q262.87 0 262.87-0.3 262.87-0.6 263.02-0.6L263.02-0.6Q264.57-0.6 265.12-1.33 265.67-2.05 265.67-4.05L265.67-4.05 265.67-13Q265.67-14.7 265.32-15.45 264.97-16.2 264.17-16.2L264.17-16.2Q263.52-16.2 262.32-15.65L262.32-15.65 262.27-15.65Q262.07-15.65 261.97-15.93 261.87-16.2 262.02-16.25L262.02-16.25 269.57-19.75 269.72-19.8Q269.97-19.8 270.22-19.55 270.47-19.3 270.47-19.1L270.47-19.1 270.47-18Q270.37-16 270.37-13.1L270.37-13.1 270.37-4.05Q270.37-2.05 270.95-1.33 271.52-0.6 273.07-0.6L273.07-0.6Q273.22-0.6 273.22-0.3 273.22 0 273.07 0L273.07 0Q271.77 0 271.02-0.05L271.02-0.05 268.02-0.1 265.07-0.05Q264.32 0 263.02 0L263.02 0ZM267.82-24.75Q266.37-24.75 265.57-25.55 264.77-26.35 264.77-27.8L264.77-27.8Q264.77-29.1 265.6-29.88 266.42-30.65 267.82-30.65L267.82-30.65Q269.22-30.65 269.97-29.9 270.72-29.15 270.72-27.8L270.72-27.8Q270.72-26.35 269.97-25.55 269.22-24.75 267.82-24.75L267.82-24.75ZM289.62 0Q289.47 0 289.47-0.3 289.47-0.6 289.62-0.6L289.62-0.6Q291.17-0.6 291.72-1.33 292.27-2.05 292.27-4.05L292.27-4.05 292.27-11.25Q292.27-13.95 291.29-15.25 290.32-16.55 288.22-16.55L288.22-16.55Q286.67-16.55 285.09-15.78 283.52-15 282.62-13.75L282.62-13.75 282.37-14.35Q284.17-16.95 286.39-18.43 288.62-19.9 291.12-19.9L291.12-19.9Q293.82-19.9 295.39-18.18 296.97-16.45 296.97-13.65L296.97-13.65 296.97-4.05Q296.97-2.05 297.54-1.33 298.12-0.6 299.67-0.6L299.67-0.6Q299.82-0.6 299.82-0.3 299.82 0 299.67 0L299.67 0Q298.37 0 297.62-0.05L297.62-0.05 294.62-0.1 291.72-0.05Q290.92 0 289.62 0L289.62 0ZM276.17 0Q276.02 0 276.02-0.3 276.02-0.6 276.17-0.6L276.17-0.6Q277.72-0.6 278.27-1.33 278.82-2.05 278.82-4.05L278.82-4.05 278.82-13.45Q278.82-15 278.44-15.73 278.07-16.45 277.27-16.45L277.27-16.45Q276.42-16.45 274.87-15.75L274.87-15.75 274.77-15.75Q274.62-15.75 274.54-16 274.47-16.25 274.57-16.3L274.57-16.3 281.52-19.7Q281.82-19.8 281.87-19.8L281.87-19.8Q282.47-19.8 282.99-18.53 283.52-17.25 283.52-15.15L283.52-15.15 283.52-4.05Q283.52-2.05 284.09-1.33 284.67-0.6 286.22-0.6L286.22-0.6Q286.37-0.6 286.37-0.3 286.37 0 286.22 0L286.22 0Q284.92 0 284.17-0.05L284.17-0.05 281.17-0.1 278.22-0.05Q277.47 0 276.17 0L276.17 0ZM312.27 0.6Q309.12 0.6 306.82-0.73 304.52-2.05 303.32-4.28 302.12-6.5 302.12-9.1L302.12-9.1Q302.12-12 303.57-14.45 305.02-16.9 307.59-18.32 310.17-19.75 313.42-19.75L313.42-19.75Q316.52-19.75 318.22-18.35 319.92-16.95 319.92-14L319.92-14Q319.92-12.45 319.37-12.45L319.37-12.45 314.57-12.45Q314.67-15.5 313.97-17.13 313.27-18.75 311.52-18.75L311.52-18.75Q309.52-18.75 308.34-16.7 307.17-14.65 307.17-11.25L307.17-11.25Q307.17-6.85 309.19-4.35 311.22-1.85 315.02-1.85L315.02-1.85Q316.37-1.85 317.32-2.18 318.27-2.5 319.82-3.25L319.82-3.25 319.92-3.3Q320.02-3.3 320.14-3.1 320.27-2.9 320.17-2.8L320.17-2.8Q318.32-1 316.42-0.2 314.52 0.6 312.27 0.6L312.27 0.6ZM305.42-12.4L305.37-13.35 316.32-13.55 316.32-12.45 305.42-12.4Z" opacity="1" transform="matrix(1,0,0,1,0,0)" fill="#ffffff" class="wordmark-text-0" data-fill-palette-color="primary" id="text-0"></path></svg></g></svg></g></svg></g></svg></g><g><svg viewBox="0 0 68.95257704564168 68.95257704564166" height="68.95257704564166" width="68.95257704564168"><g><svg></svg></g><g id="icon-0"><svg viewBox="0 0 68.95257704564168 68.95257704564166" height="68.95257704564166" width="68.95257704564168"><g><path transform="scale(0.68953,0.68953)" d="M30 100c-16.569 0-30-13.431-30-30v-40c0-16.569 13.431-30 30-30h40c16.569 0 30 13.431 30 30v40c0 16.569-13.431 30-30 30z" fill="#ffffff" fill-rule="nonzero" stroke="none" stroke-width="1" stroke-linecap="butt" stroke-linejoin="miter" stroke-miterlimit="10" stroke-dasharray="" stroke-dashoffset="0" font-family="none" font-weight="none" font-size="none" text-anchor="none" style="mix-blend-mode: normal" data-fill-palette-color="accent"></path></g><g transform="matrix(1,0,0,1,13.79051540912834,18.442095710428802)"><svg viewBox="0 0 41.371546227385 32.06838562478406" height="32.06838562478406" width="41.371546227385"><g><svg xmlns="http://www.w3.org/2000/svg" xml:space="preserve" viewBox="4.823 14.981 90.35499999999999 70.037" x="0" y="0" height="32.06838562478406" width="41.371546227385" class="icon-dxe-0" data-fill-palette-color="quaternary" id="dxe-0"><path d="M71.611 14.981c-9.679 0-17.985 5.842-21.614 14.185-3.628-8.343-11.922-14.185-21.601-14.185-13.023 0-23.573 10.553-23.573 23.57 0 7.755 3.807 14.581 9.58 18.876l35.594 27.591 35.601-27.591c5.78-4.295 9.58-11.121 9.58-18.876 0-13.016-10.557-23.57-23.567-23.57m0.718 38.109H59.881l-3.455-9.343L48.84 67.1l-7.623-17.074-0.762 2.175H27.673v-3.558h10.258l2.886-8.241 7.499 16.795 7.892-24.296 6.152 16.631h9.97v3.558z" fill="#000000" data-fill-palette-color="quaternary"></path></svg></g></svg></g></svg></g></svg></g></svg></g><defs></defs></svg><rect width="395.52" height="57.38133494984812" fill="none" stroke="none" visibility="hidden"></rect></g></svg></g></svg>